<?xml version="1.0" standalone="no"?>
<!DOCTYPE svg PUBLIC "-//W3C//DTD SVG 20010904//EN"
 "http://www.w3.org/TR/2001/REC-SVG-20010904/DTD/svg10.dtd">
<svg version="1.0" xmlns="http://www.w3.org/2000/svg"
 width="3000.000000pt" height="2000.000000pt" viewBox="0 0 3000.000000 2000.000000"
 preserveAspectRatio="xMidYMid meet">
<metadata>
Created by potrace 1.16, written by Peter Selinger 2001-2019
</metadata>
<g transform="translate(0.000000,2000.000000) scale(0.100000,-0.100000)"
fill="#000000" stroke="none">
<path d="M11550 18495 c-113 -35 -251 -79 -307 -96 -57 -18 -103 -35 -103 -38
0 -4 67 -73 148 -154 l148 -148 89 30 c244 79 231 76 320 57 271 -58 472 -115
950 -272 126 -41 200 -71 198 -81 -1 -6 10 -8 25 -6 19 4 70 49 164 146 121
125 135 143 121 155 -26 19 -35 14 -78 -38 -52 -63 -63 -63 -24 0 17 28 36 50
42 50 66 2 -680 257 -1037 355 -220 60 -405 105 -431 105 -11 -1 -112 -30
-225 -65z"/>
<path d="M10938 18298 c-49 -16 -88 -33 -88 -38 0 -5 64 -72 143 -150 l142
-142 98 28 c53 15 96 31 95 35 -5 13 -290 299 -297 298 -3 0 -45 -14 -93 -31z"/>
<path d="M10070 18004 c-107 -36 -196 -67 -198 -69 -2 -2 3 -16 12 -32 8 -15
15 -24 16 -18 0 5 58 -48 129 -119 l128 -128 97 31 c185 59 306 103 306 111 0
10 -280 290 -289 290 -3 0 -94 -30 -201 -66z"/>
<path d="M13494 18001 c3 -4 -32 -46 -77 -93 -187 -195 -179 -186 -156 -193
17 -6 41 14 135 112 169 174 158 160 123 172 -16 6 -28 7 -25 2z"/>
<path d="M13605 17773 c-72 -74 -131 -138 -133 -143 -2 -4 7 -12 20 -16 20 -6
40 11 155 131 73 75 131 141 128 145 -3 4 -13 10 -23 12 -13 4 -53 -32 -147
-129z"/>
<path d="M14304 17488 c-167 -171 -156 -156 -133 -169 22 -11 39 -4 39 17 0 8
4 14 9 14 6 0 29 21 53 46 24 26 72 76 107 111 51 51 62 66 50 74 -8 5 -17 9
-20 9 -3 0 -50 -46 -105 -102z"/>
<path d="M7705 17299 c-88 -21 -218 -51 -290 -66 -71 -15 -132 -31 -133 -35
-2 -5 -8 -5 -13 -2 -6 3 -22 3 -37 -1 l-27 -7 25 -18 c13 -10 28 -16 32 -14 4
3 5 -1 3 -8 -3 -8 52 -70 133 -150 l138 -136 64 13 c36 8 119 28 185 45 66 17
156 39 200 50 106 25 186 47 193 54 7 8 -288 309 -306 312 -4 1 -79 -16 -167
-37z"/>
<path d="M21276 17092 c-3 -5 57 -70 133 -146 130 -130 159 -150 181 -126 3 3
36 18 73 34 37 16 66 30 65 31 -8 8 -430 215 -438 215 -5 0 -11 -4 -14 -8z"/>
<path d="M21028 16992 l-138 -56 27 -28 c15 -15 35 -30 45 -34 10 -3 16 -9 14
-13 -3 -4 1 -8 7 -8 27 0 127 -54 121 -65 -4 -6 -3 -8 3 -5 6 4 47 -11 91 -33
90 -45 99 -47 167 -22 103 37 107 24 -50 182 -77 77 -142 140 -145 139 -3 0
-67 -26 -142 -57z"/>
<path d="M20713 16782 c-51 -53 -128 -133 -172 -177 -44 -44 -86 -90 -92 -102
-7 -13 -16 -23 -20 -23 -4 0 -29 -23 -56 -51 -26 -28 -61 -64 -77 -80 l-28
-28 28 8 c54 16 61 22 137 104 41 45 150 158 241 252 125 128 162 173 154 182
-6 7 -13 13 -17 13 -3 0 -48 -44 -98 -98z"/>
<path d="M15920 16831 c-8 -10 -66 -70 -127 -133 -62 -63 -113 -120 -113 -126
0 -6 9 -14 20 -17 17 -5 44 18 148 125 70 73 129 137 131 142 4 11 -18 28 -34
27 -5 0 -17 -9 -25 -18z"/>
<path d="M16169 16755 c-1 -3 -2 -8 -3 -12 -1 -5 -59 -65 -129 -135 -119 -118
-139 -148 -101 -148 11 0 124 105 124 115 0 2 30 33 66 69 36 36 63 70 59 76
-4 6 1 7 11 3 12 -4 15 -3 10 5 -4 7 -1 12 6 13 7 0 4 4 -7 9 -24 10 -35 12
-36 5z"/>
<path d="M22102 16561 c-59 -61 -105 -111 -102 -111 3 0 -6 -9 -20 -20 -25
-19 -25 -19 -50 3 -14 12 -7 3 14 -20 46 -49 40 -52 141 55 39 41 94 98 123
128 46 46 51 55 35 61 -10 3 -21 8 -26 10 -4 3 -56 -45 -115 -106z"/>
<path d="M29900 16549 c-221 -112 -619 -267 -909 -353 -1176 -353 -2537 -443
-4011 -265 -295 35 -751 111 -985 163 -60 13 -111 23 -112 22 -2 -2 83 -135
100 -156 16 -19 47 -68 47 -73 0 -2 -31 -37 -70 -78 -38 -40 -70 -76 -70 -80
0 -4 10 -9 23 -13 18 -5 33 5 82 59 33 36 63 65 66 65 3 0 25 -27 48 -60 24
-34 53 -68 66 -76 14 -9 27 -24 30 -33 4 -14 29 -22 108 -35 56 -9 125 -21
152 -26 219 -41 352 -60 520 -75 124 -10 287 -34 298 -44 8 -6 25 -7 42 -3 16
5 56 5 90 1 108 -13 585 -40 715 -40 69 0 179 -1 245 -3 66 -1 203 1 305 5
102 5 211 8 243 8 60 0 407 26 535 39 66 8 75 6 87 -11 8 -12 15 -15 20 -8 3
6 0 11 -7 12 -32 1 76 27 162 38 197 25 612 100 606 110 -2 3 15 6 37 7 23 0
114 17 202 38 327 79 626 172 931 291 91 36 171 65 178 65 6 0 27 9 46 20 19
11 90 46 158 79 l122 60 0 200 c0 111 -1 200 -2 199 -2 -1 -46 -23 -98 -49z"/>
<path d="M22405 16541 c-72 -70 -220 -234 -220 -244 0 -7 9 -13 21 -15 31 -4
292 270 267 280 -30 11 -37 9 -68 -21z"/>
<path d="M16872 16482 c-23 -26 -87 -94 -142 -151 -54 -57 -97 -108 -94 -113
14 -22 52 -4 103 50 30 31 97 100 148 153 51 53 90 99 86 102 -20 20 -60 4
-101 -41z"/>
<path d="M17041 16320 c-84 -88 -150 -164 -146 -170 17 -27 53 1 199 151 86
89 155 163 154 164 -2 1 -15 5 -29 8 -23 6 -41 -10 -178 -153z"/>
<path d="M23342 16167 c-37 -40 -99 -105 -139 -146 -40 -40 -73 -77 -73 -82 0
-5 10 -9 23 -9 15 0 39 19 72 56 28 31 89 96 138 144 48 49 87 91 87 93 0 3
-9 7 -21 10 -16 4 -35 -11 -87 -66z"/>
<path d="M23517 16020 c-81 -83 -147 -155 -147 -160 0 -6 12 -10 26 -10 21 0
58 33 174 153 147 151 155 163 104 166 -6 1 -77 -67 -157 -149z"/>
<path d="M1691 15504 l-33 -15 21 -23 c11 -12 21 -27 21 -32 0 -5 11 -16 25
-24 13 -8 64 -54 114 -103 49 -48 92 -87 96 -87 4 0 35 14 71 32 l63 32 -51
18 c-40 14 -55 15 -67 6 -13 -10 -14 -10 -4 2 10 11 3 20 -40 48 -61 40 -109
84 -140 129 -25 37 -28 37 -76 17z"/>
<path d="M3270 5109 c-282 -18 -431 -31 -480 -41 -30 -6 -66 -10 -80 -9 -57 4
-446 -53 -690 -100 -186 -37 -384 -81 -423 -95 -21 -7 -41 -13 -45 -12 -4 1
-32 -4 -63 -10 -49 -11 -63 -21 -134 -92 l-79 -80 110 -110 110 -111 175 40
c478 110 988 184 1529 221 196 13 803 17 1065 7 200 -8 200 -8 171 12 l-28 19
103 108 c57 60 128 134 158 164 l55 55 -33 3 c-30 3 -42 -5 -135 -101 -56 -57
-115 -120 -132 -138 -50 -57 -60 -62 -86 -48 -13 7 -25 15 -28 18 -3 4 -36 27
-75 50 -38 24 -72 47 -75 50 -13 17 -143 101 -155 101 -8 0 -20 9 -27 19 -8
11 -37 36 -66 56 l-52 35 -247 -2 c-137 -2 -291 -6 -343 -9z"/>
<path d="M4867 4956 c-51 -52 -129 -133 -174 -180 l-82 -86 32 0 c22 0 38 7
50 24 10 13 83 91 163 173 79 81 144 151 144 155 0 5 -9 8 -21 8 -12 0 -55
-36 -112 -94z"/>
<path d="M5747 4877 c-15 -18 -83 -90 -152 -162 -122 -128 -124 -130 -97 -138
24 -6 34 1 106 75 44 46 115 119 158 164 43 45 78 84 78 88 0 3 -15 6 -32 6
-24 -1 -40 -10 -61 -33z"/>
<path d="M5995 4798 c-26 -29 -94 -101 -152 -159 -94 -97 -102 -107 -81 -113
13 -3 26 -6 29 -6 6 0 168 163 287 287 25 28 21 43 -12 43 -14 0 -40 -19 -71
-52z"/>
<path d="M795 4636 c-173 -61 -396 -149 -511 -201 -43 -20 -89 -34 -101 -32
-14 2 -29 -4 -41 -17 -10 -12 -46 -37 -80 -56 l-61 -35 -1 -197 0 -197 148 72
c271 133 768 320 1045 392 37 10 67 21 67 24 0 4 -29 36 -65 71 l-65 65 -118
-118 -117 -117 -69 69 -69 70 40 43 c22 24 72 76 112 116 69 68 82 95 50 99
-8 1 -81 -22 -164 -51z"/>
<path d="M7280 4396 c-14 -9 -43 -15 -65 -16 -22 0 -58 -5 -80 -11 -53 -15
-252 -59 -290 -65 -16 -2 -61 -9 -99 -15 l-69 -11 174 -63 c96 -34 219 -81
273 -103 55 -23 107 -42 118 -42 10 0 18 -4 18 -9 0 -5 10 -13 22 -17 39 -12
297 -129 472 -213 93 -44 172 -81 177 -81 5 0 9 5 9 10 0 6 5 10 11 10 8 0 8
-4 0 -14 -10 -11 12 -26 121 -84 245 -128 277 -144 289 -136 7 4 9 3 6 -4 -4
-6 33 -32 90 -63 135 -72 756 -419 768 -429 6 -5 113 -65 239 -134 199 -110
276 -143 276 -120 0 3 -187 191 -416 418 -450 445 -414 416 -669 551 -44 23
-109 59 -145 80 -85 48 -191 106 -260 140 -30 14 -62 31 -70 36 -44 26 -412
209 -422 209 -6 0 -19 6 -27 14 -9 7 -59 33 -111 57 -52 23 -128 58 -168 77
-86 40 -137 48 -172 28z"/>
<path d="M29085 3469 c-98 -55 -228 -124 -402 -214 -62 -32 -113 -61 -113 -64
0 -4 43 -49 96 -101 108 -107 122 -126 94 -126 -10 0 -17 3 -14 7 4 7 -268
149 -285 149 -6 0 -71 -36 -146 -80 -75 -44 -140 -80 -145 -80 -5 0 -13 -6
-17 -13 -4 -7 -19 -17 -31 -23 -21 -9 -5 -19 156 -97 l180 -87 47 25 c26 14
54 33 62 42 8 10 12 12 8 6 -4 -9 -1 -11 10 -7 9 4 13 9 10 12 -7 7 25 42 39
42 6 0 2 -7 -8 -15 -11 -8 -17 -17 -15 -20 3 -3 15 4 26 15 12 10 24 16 29 12
4 -4 4 1 1 11 -4 11 -1 17 9 17 9 0 12 -5 8 -11 -4 -6 60 23 142 66 238 123
493 268 488 277 -3 4 3 5 12 1 13 -5 15 -3 9 7 -5 9 -4 11 3 6 7 -4 32 5 56
19 l45 26 -121 125 c-67 68 -126 124 -132 124 -6 -1 -51 -23 -101 -51z"/>
<path d="M21819 3485 c-8 -7 -117 -48 -244 -90 -126 -43 -232 -80 -235 -82 -5
-5 258 -271 281 -283 12 -7 73 9 205 51 104 34 221 70 259 82 39 11 74 24 79
28 6 5 -54 72 -136 155 -147 148 -179 168 -209 139z"/>
<path d="M11520 3481 c0 -14 -37 -19 -235 -36 -234 -19 -459 -46 -670 -80 -52
-8 -97 -15 -100 -15 -3 0 72 -78 166 -173 l172 -173 101 12 c337 40 720 64
1056 65 151 0 227 4 213 9 -13 5 -23 13 -23 19 0 5 -9 11 -20 14 -11 3 -24 16
-29 29 -5 12 -35 50 -66 82 l-56 59 28 30 c15 16 50 50 76 76 26 25 52 54 58
64 8 14 5 17 -20 17 -25 0 -44 -14 -102 -75 l-72 -75 -66 71 -66 72 -135 -2
c-74 -1 -142 -4 -151 -6 -9 -3 -22 1 -29 10 -14 17 -30 20 -30 6z"/>
<path d="M9469 3183 c133 -137 270 -276 304 -311 l63 -64 63 17 c63 16 268 61
411 91 41 8 85 17 97 20 19 4 1 26 -141 170 l-163 166 -54 -15 c-84 -24 -323
-77 -346 -77 -22 0 -50 26 -39 37 3 3 6 1 6 -6 0 -7 18 8 39 33 21 25 42 42
45 38 4 -3 4 1 1 11 -7 15 -8 15 -30 -1 -13 -9 -19 -20 -13 -23 5 -3 2 -12 -7
-19 -12 -10 -15 -10 -15 1 0 8 -7 4 -16 -9 -22 -32 -49 -27 -134 23 -41 25
-93 53 -115 63 -22 11 -65 34 -95 52 -30 18 -65 36 -78 41 -13 5 85 -102 217
-238z"/>
<path d="M13009 3381 c-24 -27 -104 -110 -177 -186 l-132 -137 42 6 c24 3 48
7 55 8 7 1 10 5 8 8 -3 4 35 48 83 98 48 50 117 122 155 160 37 39 67 75 67
81 0 6 -13 11 -29 11 -21 0 -39 -12 -72 -49z"/>
<path d="M13499 3218 c-74 -78 -147 -155 -162 -171 -23 -23 -26 -32 -15 -38
25 -16 38 -9 115 72 43 45 117 122 165 171 48 50 85 94 82 99 -3 5 -15 9 -28
9 -17 0 -60 -40 -157 -142z"/>
<path d="M10297 3309 c-43 -9 -80 -19 -82 -21 -3 -2 69 -78 160 -167 l164
-164 83 13 c46 6 91 14 102 17 15 4 -13 37 -140 163 -87 88 -162 156 -168 153
-5 -3 -6 -1 -2 5 3 6 2 13 -4 17 -9 6 -14 -8 -11 -28 1 -5 -3 -6 -9 -2 -6 3
-8 10 -5 15 10 16 -10 16 -88 -1z"/>
<path d="M13908 3303 c-10 -2 -18 -9 -18 -14 0 -6 -35 -46 -77 -89 -43 -43
-111 -112 -150 -154 -67 -69 -71 -76 -47 -76 30 0 64 16 64 31 0 5 63 74 140
151 77 78 140 146 140 150 0 8 -23 9 -52 1z"/>
<path d="M15390 2838 c-63 -67 -130 -135 -147 -151 -40 -37 -41 -43 -6 -50 18
-3 31 0 39 11 10 14 14 15 30 2 17 -14 18 -14 6 2 -15 19 -7 42 13 34 7 -2 12
1 11 8 0 7 50 66 111 131 110 116 120 134 73 135 -9 0 -67 -55 -130 -122z"/>
<path d="M19380 2625 c-14 -8 -103 -39 -198 -71 l-173 -56 68 -71 c37 -39 105
-106 150 -149 l81 -77 193 64 c106 36 197 69 202 74 6 6 -14 30 -49 63 -31 29
-67 64 -78 76 -50 56 -158 162 -164 162 -4 -1 -18 -7 -32 -15z"/>
<path d="M16728 2558 c-10 -12 -58 -64 -108 -115 -84 -87 -89 -94 -78 -118 11
-25 13 -23 134 102 68 71 123 134 124 141 0 21 -54 14 -72 -10z"/>
<path d="M17175 2342 c-38 -40 -91 -95 -117 -122 -27 -27 -48 -54 -48 -60 0
-6 -4 -8 -10 -5 -5 3 -10 1 -10 -5 0 -7 -6 -10 -13 -7 -8 3 -14 -1 -14 -8 0
-24 43 -23 70 1 15 13 27 25 27 28 0 3 52 57 115 120 63 63 115 117 115 119 0
3 -10 7 -22 9 -18 3 -38 -12 -93 -70z"/>
<path d="M17473 2323 c-7 -2 -13 -9 -13 -13 0 -5 -30 -40 -67 -77 -38 -38 -84
-87 -103 -109 -19 -22 -48 -49 -63 -61 l-28 -21 138 -46 c76 -24 239 -80 362
-122 l224 -78 176 44 c97 23 182 46 188 49 8 4 -35 54 -120 137 -170 168 -209
185 -351 148 -34 -8 -86 -22 -116 -29 -30 -8 -85 -19 -121 -25 -36 -5 -115
-21 -175 -34 -60 -13 -111 -22 -113 -20 -3 2 24 33 60 68 109 109 179 183 179
190 0 7 -39 7 -57 -1z"/>
<path d="M18326 1999 l79 -79 87 24 c106 30 113 33 97 52 -10 12 -13 12 -24
-2 -11 -15 -23 -13 -137 27 -70 24 -125 46 -123 49 2 3 -10 6 -27 6 -29 1 -27
-2 48 -77z"/>
</g>
</svg>
