<?xml version="1.0" standalone="no"?>
<!DOCTYPE svg PUBLIC "-//W3C//DTD SVG 20010904//EN"
 "http://www.w3.org/TR/2001/REC-SVG-20010904/DTD/svg10.dtd">
<svg version="1.0" xmlns="http://www.w3.org/2000/svg"
 width="5000.000000pt" height="3333.000000pt" viewBox="0 0 5000.000000 3333.000000"
 preserveAspectRatio="xMidYMid meet">
<metadata>
Created by potrace 1.16, written by Peter Selinger 2001-2019
</metadata>
<g transform="translate(0.000000,3333.000000) scale(0.100000,-0.100000)"
fill="#000000" stroke="none">
<path d="M38439 32938 c-1 -216 -1 -399 0 -405 1 -7 -2 -13 -7 -13 -4 0 -18
-15 -31 -32 l-22 -33 25 28 c14 15 28 27 32 27 4 0 51 44 103 97 53 54 105
102 116 108 11 6 20 21 19 33 0 12 3 22 8 22 4 0 8 -6 8 -12 0 -9 4 -8 10 2 5
8 10 11 10 7 0 -8 13 2 51 36 10 9 19 15 19 12 0 -2 23 9 51 25 28 17 66 37
85 45 20 8 33 19 29 25 -3 6 0 7 9 4 8 -3 44 3 78 15 155 51 304 62 478 36
217 -32 393 -118 566 -277 101 -93 143 -126 227 -177 143 -87 293 -131 473
-139 265 -11 486 58 692 217 42 33 230 213 417 400 l340 341 -1893 0 -1892 0
-1 -392z"/>
<path d="M45011 33323 c4 -25 -2 -43 -13 -37 -7 4 -8 3 -4 -4 4 -6 -4 -30 -16
-53 -13 -23 -32 -58 -43 -79 -34 -63 -96 -140 -107 -133 -6 3 -8 1 -4 -5 7
-12 21 3 -1814 -1842 -762 -766 -1407 -1422 -1434 -1459 -63 -86 -139 -243
-168 -351 -20 -74 -23 -108 -23 -265 0 -196 8 -241 67 -385 51 -124 112 -222
199 -315 230 -247 321 -444 336 -726 12 -239 -52 -461 -189 -656 -23 -33 -222
-242 -440 -463 -447 -452 -487 -502 -565 -708 -141 -377 -33 -835 264 -1112
77 -72 201 -156 288 -195 213 -94 471 -114 700 -55 115 30 285 116 380 193 44
36 619 606 1279 1266 659 660 1203 1198 1209 1194 6 -3 7 -1 3 5 -8 14 60 86
73 77 6 -3 8 0 5 9 -6 15 32 43 51 37 5 -1 7 1 3 5 -11 10 12 35 26 27 6 -3 8
-3 4 2 -11 11 12 36 26 28 6 -3 8 -2 3 2 -4 5 3 19 15 32 17 19 24 21 37 10
14 -10 14 -10 3 5 -12 14 -8 21 25 51 31 29 41 33 53 24 13 -11 13 -10 1 6
-13 16 -11 20 10 35 13 9 29 15 34 14 6 -2 7 0 3 4 -11 10 12 35 26 27 6 -3 8
-3 4 2 -10 11 11 37 23 29 5 -3 8 0 7 8 -2 7 3 12 10 10 8 -1 11 1 8 6 -2 4
16 28 41 52 26 25 43 39 39 33 -4 -7 -2 -13 4 -13 7 0 10 -274 8 -935 -2 -513
0 -931 4 -927 5 5 9 424 10 932 2 608 6 925 13 925 7 0 11 -318 13 -928 1
-679 -1 -926 -9 -921 -7 4 -9 0 -5 -14 4 -11 2 -23 -3 -27 -7 -3 -8 0 -5 10 5
11 2 14 -10 9 -13 -5 -14 -9 -5 -21 7 -7 18 -12 24 -9 7 2 16 1 21 -4 5 -5 9
415 9 975 0 540 -3 981 -6 979 -17 -10 -15 26 1 41 17 15 22 16 37 4 16 -13
17 -12 4 4 -20 25 1 46 26 26 17 -13 17 -13 4 4 -13 16 -11 21 16 49 l31 30
-5 -26 c-4 -17 -1 -26 7 -26 7 0 10 7 6 15 -3 9 0 15 10 15 8 0 12 -5 9 -10
-3 -6 1 -13 10 -16 14 -6 15 -108 15 -1080 -1 -773 -4 -1075 -12 -1080 -7 -4
-8 -3 -4 4 4 7 1 12 -6 12 -10 0 -9 3 2 11 12 8 12 10 1 7 -22 -6 -21 -35 2
-55 11 -10 17 -12 13 -5 -4 6 -2 12 3 12 6 0 11 -4 11 -10 0 -5 9 -10 21 -10
12 0 17 4 13 11 -4 8 0 8 15 0 11 -7 21 -14 21 -17 0 -3 -3 -3 -7 -1 -5 3 -17
1 -28 -4 l-20 -8 20 0 c15 -1 17 -3 7 -10 -10 -6 -4 -10 18 -14 18 -4 29 -11
25 -17 -5 -8 -12 -7 -23 2 -10 7 -4 -2 12 -20 17 -18 33 -32 37 -32 4 0 21
-12 37 -27 47 -44 111 -87 197 -130 349 -177 773 -144 1095 85 36 25 137 117
225 202 88 86 188 176 223 199 85 57 208 115 317 148 85 25 102 27 285 27 185
0 200 -1 285 -27 181 -55 318 -134 459 -265 182 -168 346 -256 571 -304 90
-19 332 -14 425 9 l75 18 3 3943 2 3942 -2495 0 c-1372 0 -2494 -3 -2494 -7z"/>
<path d="M33690 30111 c-122 -27 -290 -93 -290 -113 0 -5 -5 -6 -10 -3 -6 3
-13 -1 -16 -9 -3 -9 -10 -13 -15 -10 -5 3 -6 -3 -2 -13 3 -10 3 -15 -2 -11
-10 10 -37 -11 -29 -23 3 -5 11 -9 17 -9 7 0 6 4 -3 10 -13 9 -13 10 0 10 13
0 15 -101 12 -861 -2 -568 1 -865 7 -873 7 -8 7 -16 1 -22 -15 -15 1 -30 75
-66 156 -78 302 -111 485 -111 504 2 928 349 1036 848 23 110 24 313 0 425
-72 338 -285 607 -600 756 -144 68 -224 85 -416 90 -136 3 -180 1 -250 -15z"/>
<path d="M48314 24652 c-17 -13 -14 -31 4 -26 16 5 16 5 -1 -9 -16 -13 -17
-71 -17 -996 l0 -983 33 7 c50 11 171 70 245 119 242 160 403 407 457 701 23
122 16 326 -15 445 -45 171 -133 334 -251 464 -57 64 -173 154 -262 205 -69
39 -181 81 -193 73z"/>
<path d="M2153 21805 c-39 -7 -102 -23 -140 -35 -75 -25 -206 -88 -211 -101
-2 -5 -11 -9 -20 -9 -13 0 -14 -2 -4 -8 10 -7 12 -189 10 -890 -2 -485 0 -882
4 -882 4 0 5 -6 2 -14 -12 -31 154 -109 306 -145 302 -73 635 -2 888 189 357
269 508 755 367 1177 -60 178 -132 292 -269 428 -157 154 -318 241 -533 284
-117 24 -287 27 -400 6z"/>
<path d="M4027 12981 c-26 -26 -47 -55 -47 -63 0 -19 -29 -45 -55 -50 -11 -2
-21 -13 -23 -25 -4 -25 -29 -49 -57 -55 -11 -2 -21 -12 -23 -23 -5 -25 -31
-55 -48 -55 -7 0 -859 -847 -1893 -1882 l-1880 -1883 -1 -1520 0 -1520 32 40
c17 22 313 324 657 670 818 823 2516 2527 2654 2663 59 58 105 112 103 119 -3
6 1 10 7 7 18 -6 81 61 72 77 -6 8 -4 10 4 4 16 -9 83 54 77 72 -3 7 1 10 11
6 12 -5 14 -1 8 18 -5 18 -4 20 4 9 9 -12 22 -4 75 49 36 36 63 68 60 72 -2 4
1 11 7 15 8 5 9 3 4 -7 -4 -8 11 4 33 26 23 22 40 46 37 53 -3 7 0 10 6 7 15
-10 83 61 73 76 -5 8 -3 10 5 5 17 -11 86 58 75 75 -5 8 -3 10 6 4 18 -11 94
74 80 91 -6 6 -10 16 -9 20 1 5 1 652 0 1437 -1 1140 -4 1427 -13 1421 -9 -5
-9 -2 1 9 10 13 11 20 2 30 -7 10 -7 17 0 24 6 6 10 16 8 22 -2 6 -25 -11 -52
-38z"/>
<path d="M6797 8903 c-2 -5 -3 -18 -2 -30 1 -12 -2 -20 -7 -17 -4 3 -9 -432
-10 -965 -3 -902 -2 -970 14 -965 12 4 15 0 11 -15 -5 -20 -3 -19 58 5 247
101 432 269 552 502 90 174 123 335 114 541 -12 257 -108 485 -283 670 -92 98
-179 162 -309 226 -109 55 -130 62 -138 48z"/>
<path d="M4044 6939 c-23 -16 -579 -569 -1235 -1230 -657 -661 -1221 -1223
-1254 -1249 -127 -101 -260 -167 -423 -212 -64 -18 -106 -22 -252 -22 -162 -1
-183 1 -274 27 -228 63 -425 192 -567 370 l-39 49 0 -2336 0 -2336 2053 0
2052 0 -3 471 c-3 429 -1 471 13 465 9 -3 13 -2 10 4 -3 6 -10 10 -15 10 -4 0
-74 -65 -154 -145 -94 -94 -139 -145 -128 -146 9 -1 5 -4 -10 -8 -32 -7 -181
-149 -171 -164 3 -6 1 -7 -5 -3 -7 4 -12 2 -12 -3 0 -6 -3 -10 -7 -9 -16 5
-103 -54 -96 -64 3 -7 1 -8 -5 -4 -15 9 -55 -18 -44 -29 4 -5 2 -5 -4 -2 -6 3
-53 -11 -105 -33 -408 -168 -870 -72 -1176 243 -135 139 -217 283 -270 473
-25 90 -28 114 -28 269 0 190 16 275 80 426 70 166 121 227 506 615 198 198
356 364 352 369 -5 4 -3 5 3 2 14 -8 87 66 77 78 -5 4 -3 5 3 2 14 -8 87 66
77 78 -5 4 -3 5 3 2 14 -8 117 96 107 108 -5 4 -3 5 3 2 9 -5 649 629 694 687
14 18 13 19 -2 13 -25 -9 -22 0 3 14 15 8 19 8 15 0 -19 -30 14 -2 102 85 53
53 96 101 94 106 -1 5 2 7 7 3 8 -4 32 26 35 45 1 3 4 4 7 3 4 -1 15 7 24 17
11 12 13 20 6 20 -9 0 -9 5 -1 20 6 10 17 17 24 14 8 -3 17 -1 20 4 3 5 -6 8
-19 6 l-25 -2 2 1464 c2 805 1 1464 -2 1463 -3 0 -24 -14 -46 -30z"/>
<path d="M41815 4543 c-7 -5 -11 -348 -13 -983 -2 -677 0 -970 7 -960 9 13 11
13 11 -2 0 -10 -4 -18 -8 -18 -4 0 -8 -9 -9 -20 -1 -12 4 -20 14 -20 31 0 177
71 261 127 218 144 368 360 439 632 21 80 26 120 26 236 1 150 -9 220 -49 342
-88 269 -280 493 -529 617 -98 48 -135 60 -150 49z"/>
<path d="M47337 1368 c-9 -6 -8 -8 2 -8 11 0 11 -3 1 -15 -11 -13 94 -14 886
-12 l899 2 -882 2 c-584 2 -883 7 -883 13 0 7 297 9 885 8 486 -2 881 0 877 4
-10 10 -1770 15 -1785 6z"/>
<path d="M43018 1363 c210 -2 554 -2 765 0 210 1 38 2 -383 2 -421 0 -593 -1
-382 -2z"/>
<path d="M39377 1353 c585 -2 1541 -2 2126 0 584 1 106 2 -1063 2 -1169 0
-1647 -1 -1063 -2z"/>
<path d="M42641 1335 c3 -2 344 -5 758 -5 646 -1 752 -4 747 -16 -8 -21 2 -17
14 6 11 20 8 20 -756 20 -422 0 -765 -2 -763 -5z"/>
<path d="M37949 1063 c-1 -5 -1 -11 0 -15 0 -5 -3 -9 -9 -9 -5 -1 -15 -2 -21
-3 -11 -1 -34 -46 -24 -46 3 0 -3 -8 -12 -18 -10 -11 -26 -18 -35 -16 -19 3
-35 -14 -34 -36 1 -21 -26 -47 -46 -44 -19 3 -35 -14 -34 -36 1 -21 -26 -47
-45 -44 -9 1 -175 -158 -414 -397 l-399 -399 3218 0 3218 0 -4 50 c-1 27 -1
50 2 50 3 0 7 12 8 28 4 51 45 199 66 241 8 14 16 35 18 46 1 11 5 22 8 25 12
11 90 142 90 151 0 5 5 9 10 9 6 0 10 5 10 10 0 6 12 22 28 36 15 14 22 23 15
20 -6 -4 -15 -1 -19 5 -4 7 -3 9 4 5 14 -8 84 53 75 67 -3 5 -2 7 4 4 13 -8
86 67 76 78 -5 4 -3 5 3 2 12 -7 87 65 79 76 -3 4 -2 5 2 2 11 -8 83 67 76 79
-3 6 -2 8 2 3 8 -7 75 49 75 63 0 3 -17 5 -37 4 -21 -1 -40 -2 -43 -2 -5004
-7 -5865 -6 -5862 6 1 8 -2 11 -8 7 -6 -3 -8 -10 -5 -15 7 -11 -22 -7 -32 5
-4 4 -2 5 6 0 9 -5 12 -4 7 3 -8 14 -15 15 -17 5z"/>
<path d="M46979 1044 c-13 -14 -16 -24 -9 -27 6 -3 5 -4 -2 -3 -18 4 -50 -13
-43 -23 2 -5 -2 -14 -10 -21 -8 -7 -15 -9 -15 -5 0 9 -54 -47 -55 -57 0 -8
-15 -23 -23 -23 -9 0 -57 -48 -57 -57 0 -8 -15 -23 -23 -23 -4 0 -189 -181
-412 -402 l-405 -403 1501 0 1502 0 76 80 c42 45 97 112 122 151 54 83 116
213 119 249 1 14 7 36 14 49 7 12 11 32 8 42 -3 11 -1 16 5 13 5 -3 8 0 7 7
-2 8 0 23 3 34 14 44 20 117 9 111 -7 -5 -7 2 0 22 8 24 7 109 -4 219 -2 17
-10 40 -18 49 -9 11 -9 15 -1 10 6 -4 12 -2 12 3 0 14 87 13 -1157 15 -600 0
-1089 4 -1087 8 11 17 -39 1 -57 -18z"/>
</g>
</svg>
